<?xml version="1.0" encoding="UTF-8" standalone="no"?>
<svg width="40px" height="40px" viewBox="0 0 40 40" version="1.1" xmlns="http://www.w3.org/2000/svg" xmlns:xlink="http://www.w3.org/1999/xlink" xmlns:sketch="http://www.bohemiancoding.com/sketch/ns">
    <!-- Generator: Sketch 3.3.1 (12005) - http://www.bohemiancoding.com/sketch -->
    <title>Oval 1 + Shape</title>
    <desc>Created with Sketch.</desc>
    <defs></defs>
    <g id="Page-1" stroke="none" stroke-width="1" fill="none" fill-rule="evenodd" sketch:type="MSPage">
        <g id="Oval-1-+-Shape" sketch:type="MSLayerGroup">
            <circle id="Oval-1" fill="#FFFFFF" sketch:type="MSShapeGroup" cx="20" cy="20" r="20"></circle>
            <path d="M23.8461538,17.9495385 C23.8461538,16.4671667 23.3193109,15.1991378 22.265625,14.1454519 C21.2119391,13.091766 19.9439103,12.5649231 18.4615385,12.5649231 C16.9791667,12.5649231 15.7111378,13.091766 14.6574519,14.1454519 C13.603766,15.1991378 13.0769231,16.4671667 13.0769231,17.9495385 C13.0769231,19.4319103 13.603766,20.6999391 14.6574519,21.753625 C15.7111378,22.8073109 16.9791667,23.3341538 18.4615385,23.3341538 C19.9439103,23.3341538 21.2119391,22.8073109 22.265625,21.753625 C23.3193109,20.6999391 23.8461538,19.4319103 23.8461538,17.9495385 L23.8461538,17.9495385 Z M30,27.9495385 C30,28.3662051 29.8477564,28.7267821 29.5432692,29.0312692 C29.2387821,29.3357564 28.8782051,29.488 28.4615385,29.488 C28.0288462,29.488 27.6682692,29.3357564 27.3798077,29.0312692 L23.2572115,24.9206923 C21.8229167,25.9142821 20.224359,26.4110769 18.4615385,26.4110769 C17.3157051,26.4110769 16.2199519,26.1887212 15.1742788,25.7440096 C14.1286058,25.2992981 13.2271635,24.6983365 12.4699519,23.941125 C11.7127404,23.1839135 11.1117788,22.2824712 10.6670673,21.2367981 C10.2223558,20.191125 10,19.0953718 10,17.9495385 C10,16.8037051 10.2223558,15.7079519 10.6670673,14.6622788 C11.1117788,13.6166058 11.7127404,12.7151635 12.4699519,11.9579519 C13.2271635,11.2007404 14.1286058,10.5997788 15.1742788,10.1550673 C16.2199519,9.71035577 17.3157051,9.488 18.4615385,9.488 C19.6073718,9.488 20.703125,9.71035577 21.7487981,10.1550673 C22.7944712,10.5997788 23.6959135,11.2007404 24.453125,11.9579519 C25.2103365,12.7151635 25.8112981,13.6166058 26.2560096,14.6622788 C26.7007212,15.7079519 26.9230769,16.8037051 26.9230769,17.9495385 C26.9230769,19.712359 26.4262821,21.3109167 25.4326923,22.7452115 L29.5552885,26.8678077 C29.8517628,27.1642821 30,27.524859 30,27.9495385 L30,27.9495385 Z" id="Shape" fill="#000000" sketch:type="MSShapeGroup"></path>
        </g>
    </g>
</svg>